
<svg id="visual" viewBox="0 0 900 600" width="900" height="600" xmlns="http://www.w3.org/2000/svg" xmlns:xlink="http://www.w3.org/1999/xlink" version="1.1"><rect x="0" y="0" width="900" height="600" fill="#ece3d4"></rect><defs><linearGradient id="grad1_0" x1="33.3%" y1="100%" x2="100%" y2="0%"><stop offset="20%" stop-color="#e0b771" stop-opacity="1"></stop><stop offset="80%" stop-color="#e0b771" stop-opacity="1"></stop></linearGradient></defs><defs><linearGradient id="grad1_1" x1="33.3%" y1="100%" x2="100%" y2="0%"><stop offset="20%" stop-color="#e0b771" stop-opacity="1"></stop><stop offset="80%" stop-color="#e2bd7f" stop-opacity="1"></stop></linearGradient></defs><defs><linearGradient id="grad1_2" x1="33.3%" y1="100%" x2="100%" y2="0%"><stop offset="20%" stop-color="#e4c48d" stop-opacity="1"></stop><stop offset="80%" stop-color="#e2bd7f" stop-opacity="1"></stop></linearGradient></defs><defs><linearGradient id="grad1_3" x1="33.3%" y1="100%" x2="100%" y2="0%"><stop offset="20%" stop-color="#e4c48d" stop-opacity="1"></stop><stop offset="80%" stop-color="#e6ca9b" stop-opacity="1"></stop></linearGradient></defs><defs><linearGradient id="grad1_4" x1="33.3%" y1="100%" x2="100%" y2="0%"><stop offset="20%" stop-color="#e8d0a9" stop-opacity="1"></stop><stop offset="80%" stop-color="#e6ca9b" stop-opacity="1"></stop></linearGradient></defs><defs><linearGradient id="grad1_5" x1="33.3%" y1="100%" x2="100%" y2="0%"><stop offset="20%" stop-color="#e8d0a9" stop-opacity="1"></stop><stop offset="80%" stop-color="#e9d7b7" stop-opacity="1"></stop></linearGradient></defs><defs><linearGradient id="grad1_6" x1="33.3%" y1="100%" x2="100%" y2="0%"><stop offset="20%" stop-color="#ebddc6" stop-opacity="1"></stop><stop offset="80%" stop-color="#e9d7b7" stop-opacity="1"></stop></linearGradient></defs><defs><linearGradient id="grad1_7" x1="33.3%" y1="100%" x2="100%" y2="0%"><stop offset="20%" stop-color="#ebddc6" stop-opacity="1"></stop><stop offset="80%" stop-color="#ece3d4" stop-opacity="1"></stop></linearGradient></defs><defs><linearGradient id="grad2_0" x1="0%" y1="100%" x2="66.7%" y2="0%"><stop offset="20%" stop-color="#e0b771" stop-opacity="1"></stop><stop offset="80%" stop-color="#e0b771" stop-opacity="1"></stop></linearGradient></defs><defs><linearGradient id="grad2_1" x1="0%" y1="100%" x2="66.7%" y2="0%"><stop offset="20%" stop-color="#e2bd7f" stop-opacity="1"></stop><stop offset="80%" stop-color="#e0b771" stop-opacity="1"></stop></linearGradient></defs><defs><linearGradient id="grad2_2" x1="0%" y1="100%" x2="66.7%" y2="0%"><stop offset="20%" stop-color="#e2bd7f" stop-opacity="1"></stop><stop offset="80%" stop-color="#e4c48d" stop-opacity="1"></stop></linearGradient></defs><defs><linearGradient id="grad2_3" x1="0%" y1="100%" x2="66.7%" y2="0%"><stop offset="20%" stop-color="#e6ca9b" stop-opacity="1"></stop><stop offset="80%" stop-color="#e4c48d" stop-opacity="1"></stop></linearGradient></defs><defs><linearGradient id="grad2_4" x1="0%" y1="100%" x2="66.7%" y2="0%"><stop offset="20%" stop-color="#e6ca9b" stop-opacity="1"></stop><stop offset="80%" stop-color="#e8d0a9" stop-opacity="1"></stop></linearGradient></defs><defs><linearGradient id="grad2_5" x1="0%" y1="100%" x2="66.7%" y2="0%"><stop offset="20%" stop-color="#e9d7b7" stop-opacity="1"></stop><stop offset="80%" stop-color="#e8d0a9" stop-opacity="1"></stop></linearGradient></defs><defs><linearGradient id="grad2_6" x1="0%" y1="100%" x2="66.7%" y2="0%"><stop offset="20%" stop-color="#e9d7b7" stop-opacity="1"></stop><stop offset="80%" stop-color="#ebddc6" stop-opacity="1"></stop></linearGradient></defs><defs><linearGradient id="grad2_7" x1="0%" y1="100%" x2="66.7%" y2="0%"><stop offset="20%" stop-color="#ece3d4" stop-opacity="1"></stop><stop offset="80%" stop-color="#ebddc6" stop-opacity="1"></stop></linearGradient></defs><g transform="translate(900, 600)"><path d="M-486.7 0C-475.1 -61 -463.5 -122.1 -442.5 -183.3C-421.6 -244.5 -391.3 -305.9 -344.2 -344.2C-297.1 -382.5 -233.1 -397.7 -173 -417.6C-112.8 -437.5 -56.4 -462.1 0 -486.7L0 0Z" fill="#ebe0cd"></path><path d="M-425.9 0C-415.7 -53.4 -405.6 -106.8 -387.2 -160.4C-368.9 -214 -342.4 -267.7 -301.2 -301.2C-259.9 -334.7 -204 -348 -151.4 -365.4C-98.7 -382.8 -49.4 -404.4 0 -425.9L0 0Z" fill="#eadabe"></path><path d="M-365.1 0C-356.3 -45.8 -347.6 -91.6 -331.9 -137.5C-316.2 -183.4 -293.5 -229.4 -258.1 -258.1C-222.8 -286.9 -174.9 -298.3 -129.7 -313.2C-84.6 -328.1 -42.3 -346.6 0 -365.1L0 0Z" fill="#e8d3b0"></path><path d="M-304.2 0C-297 -38.2 -289.7 -76.3 -276.6 -114.6C-263.5 -152.8 -244.6 -191.2 -215.1 -215.1C-185.7 -239 -145.7 -248.6 -108.1 -261C-70.5 -273.4 -35.3 -288.8 0 -304.2L0 0Z" fill="#e7cda2"></path><path d="M-243.4 0C-237.6 -30.5 -231.7 -61 -221.3 -91.7C-210.8 -122.3 -195.6 -152.9 -172.1 -172.1C-148.5 -191.2 -116.6 -198.8 -86.5 -208.8C-56.4 -218.8 -28.2 -231.1 0 -243.4L0 0Z" fill="#e5c794"></path><path d="M-182.5 0C-178.2 -22.9 -173.8 -45.8 -166 -68.7C-158.1 -91.7 -146.7 -114.7 -129.1 -129.1C-111.4 -143.4 -87.4 -149.1 -64.9 -156.6C-42.3 -164.1 -21.2 -173.3 0 -182.5L0 0Z" fill="#e3c186"></path><path d="M-121.7 0C-118.8 -15.3 -115.9 -30.5 -110.6 -45.8C-105.4 -61.1 -97.8 -76.5 -86 -86C-74.3 -95.6 -58.3 -99.4 -43.2 -104.4C-28.2 -109.4 -14.1 -115.5 0 -121.7L0 0Z" fill="#e1ba78"></path><path d="M-60.8 0C-59.4 -7.6 -57.9 -15.3 -55.3 -22.9C-52.7 -30.6 -48.9 -38.2 -43 -43C-37.1 -47.8 -29.1 -49.7 -21.6 -52.2C-14.1 -54.7 -7.1 -57.8 0 -60.8L0 0Z" fill="#e0b771"></path></g><g transform="translate(0, 0)"><path d="M486.7 0C441.3 47.7 395.8 95.3 378.8 156.9C361.8 218.5 373.2 294 344.2 344.2C315.2 394.4 245.9 419.3 181.8 438.8C117.7 458.4 58.8 472.6 0 486.7L0 0Z" fill="#ebe0cd"></path><path d="M425.9 0C386.1 41.7 346.3 83.4 331.4 137.3C316.5 191.2 326.5 257.2 301.2 301.2C275.8 345.1 215.1 366.9 159.1 384C103 401.1 51.5 413.5 0 425.9L0 0Z" fill="#eadabe"></path><path d="M365.1 0C331 35.7 296.9 71.5 284.1 117.7C271.3 163.9 279.9 220.5 258.1 258.1C236.4 295.8 184.4 314.5 136.3 329.1C88.3 343.8 44.1 354.4 0 365.1L0 0Z" fill="#e8d3b0"></path><path d="M304.2 0C275.8 29.8 247.4 59.6 236.7 98.1C226.1 136.6 233.2 183.7 215.1 215.1C197 246.5 153.7 262.1 113.6 274.3C73.6 286.5 36.8 295.4 0 304.2L0 0Z" fill="#e7cda2"></path><path d="M243.4 0C220.6 23.8 197.9 47.7 189.4 78.5C180.9 109.2 186.6 147 172.1 172.1C157.6 197.2 122.9 209.6 90.9 219.4C58.8 229.2 29.4 236.3 0 243.4L0 0Z" fill="#e5c794"></path><path d="M182.5 0C165.5 17.9 148.4 35.7 142 58.8C135.7 81.9 139.9 110.2 129.1 129.1C118.2 147.9 92.2 157.2 68.2 164.6C44.1 171.9 22.1 177.2 0 182.5L0 0Z" fill="#e3c186"></path><path d="M121.7 0C110.3 11.9 99 23.8 94.7 39.2C90.4 54.6 93.3 73.5 86 86C78.8 98.6 61.5 104.8 45.4 109.7C29.4 114.6 14.7 118.1 0 121.7L0 0Z" fill="#e1ba78"></path><path d="M60.8 0C55.2 6 49.5 11.9 47.3 19.6C45.2 27.3 46.6 36.7 43 43C39.4 49.3 30.7 52.4 22.7 54.9C14.7 57.3 7.4 59.1 0 60.8L0 0Z" fill="#e0b771"></path></g></svg>