
<svg id="visual" viewBox="0 0 900 600" width="900" height="600" xmlns="http://www.w3.org/2000/svg" xmlns:xlink="http://www.w3.org/1999/xlink" version="1.1"><g stroke-width="0.1" stroke-linejoin="bevel"><path d="M393 298L303 296L320 370Z" fill="#d4c3aa" stroke="#621c1c"></path><path d="M329 185L226 285L303 296Z" fill="#dcc9ac" stroke="#621c1c"></path><path d="M303 296L226 285L320 370Z" fill="#dac8ac" stroke="#621c1c"></path><path d="M393 298L384 194L303 296Z" fill="#d4c3aa" stroke="#621c1c"></path><path d="M320 370L431 434L393 298Z" fill="#e0cdae" stroke="#621c1c"></path><path d="M393 298L475 188L384 194Z" fill="#d6c5ab" stroke="#621c1c"></path><path d="M384 194L329 185L303 296Z" fill="#d6c5ab" stroke="#621c1c"></path><path d="M431 434L504 382L393 298Z" fill="#d8c6ab" stroke="#621c1c"></path><path d="M504 382L520 313L393 298Z" fill="#dac8ac" stroke="#621c1c"></path><path d="M520 313L475 188L393 298Z" fill="#decbad" stroke="#621c1c"></path><path d="M384 194L427 123L329 185Z" fill="#e2ceae" stroke="#621c1c"></path><path d="M312 520L384 519L320 370Z" fill="#d6c5ab" stroke="#621c1c"></path><path d="M320 370L384 519L431 434Z" fill="#e2ceae" stroke="#621c1c"></path><path d="M431 434L517 505L504 382Z" fill="#dcc9ac" stroke="#621c1c"></path><path d="M172 470L312 520L320 370Z" fill="#d4c3aa" stroke="#621c1c"></path><path d="M226 285L163 407L320 370Z" fill="#d8c6ab" stroke="#621c1c"></path><path d="M475 188L427 123L384 194Z" fill="#dac8ac" stroke="#621c1c"></path><path d="M218 119L179 182L329 185Z" fill="#e2ceae" stroke="#621c1c"></path><path d="M329 185L179 182L226 285Z" fill="#e0cdae" stroke="#621c1c"></path><path d="M226 285L101 324L163 407Z" fill="#d8c6ab" stroke="#621c1c"></path><path d="M163 407L172 470L320 370Z" fill="#dcc9ac" stroke="#621c1c"></path><path d="M427 123L326 85L329 185Z" fill="#e4d0af" stroke="#621c1c"></path><path d="M326 85L218 119L329 185Z" fill="#e6d1af" stroke="#621c1c"></path><path d="M520 313L572 231L475 188Z" fill="#e0cdae" stroke="#621c1c"></path><path d="M475 188L505 84L427 123Z" fill="#d8c6ab" stroke="#621c1c"></path><path d="M619 300L572 231L520 313Z" fill="#e8d3b0" stroke="#621c1c"></path><path d="M179 182L101 324L226 285Z" fill="#e6d1af" stroke="#621c1c"></path><path d="M163 407L102 402L172 470Z" fill="#dcc9ac" stroke="#621c1c"></path><path d="M384 519L517 505L431 434Z" fill="#e0cdae" stroke="#621c1c"></path><path d="M504 382L597 371L520 313Z" fill="#dac8ac" stroke="#621c1c"></path><path d="M591 492L597 371L504 382Z" fill="#d8c6ab" stroke="#621c1c"></path><path d="M101 324L102 402L163 407Z" fill="#d6c5ab" stroke="#621c1c"></path><path d="M597 371L619 300L520 313Z" fill="#dcc9ac" stroke="#621c1c"></path><path d="M312 520L375 600L384 519Z" fill="#d6c5ab" stroke="#621c1c"></path><path d="M384 519L528 600L517 505Z" fill="#e2ceae" stroke="#621c1c"></path><path d="M265 600L375 600L312 520Z" fill="#d6c5ab" stroke="#621c1c"></path><path d="M196 600L265 600L172 470Z" fill="#decbad" stroke="#621c1c"></path><path d="M172 470L265 600L312 520Z" fill="#e0cdae" stroke="#621c1c"></path><path d="M492 0L505 84L619 73Z" fill="#d8c6ab" stroke="#621c1c"></path><path d="M572 231L505 84L475 188Z" fill="#e0cdae" stroke="#621c1c"></path><path d="M415 0L307 0L326 85Z" fill="#d4c3aa" stroke="#621c1c"></path><path d="M596 600L591 492L517 505Z" fill="#d4c3aa" stroke="#621c1c"></path><path d="M517 505L591 492L504 382Z" fill="#e2ceae" stroke="#621c1c"></path><path d="M597 371L663 335L619 300Z" fill="#e4d0af" stroke="#621c1c"></path><path d="M179 182L65 232L101 324Z" fill="#e6d1af" stroke="#621c1c"></path><path d="M101 324L0 304L102 402Z" fill="#d4c3aa" stroke="#621c1c"></path><path d="M132 113L65 232L179 182Z" fill="#d4c3aa" stroke="#621c1c"></path><path d="M215 0L132 113L218 119Z" fill="#dac8ac" stroke="#621c1c"></path><path d="M218 119L132 113L179 182Z" fill="#dcc9ac" stroke="#621c1c"></path><path d="M106 529L196 600L172 470Z" fill="#e2ceae" stroke="#621c1c"></path><path d="M713 413L663 335L597 371Z" fill="#d6c5ab" stroke="#621c1c"></path><path d="M619 300L692 199L572 231Z" fill="#d6c5ab" stroke="#621c1c"></path><path d="M102 402L106 529L172 470Z" fill="#dcc9ac" stroke="#621c1c"></path><path d="M0 491L106 529L102 402Z" fill="#decbad" stroke="#621c1c"></path><path d="M415 0L326 85L427 123Z" fill="#d4c3aa" stroke="#621c1c"></path><path d="M326 85L215 0L218 119Z" fill="#d6c5ab" stroke="#621c1c"></path><path d="M375 600L528 600L384 519Z" fill="#dac8ac" stroke="#621c1c"></path><path d="M505 84L415 0L427 123Z" fill="#e2ceae" stroke="#621c1c"></path><path d="M0 213L0 304L65 232Z" fill="#dac8ac" stroke="#621c1c"></path><path d="M65 232L0 304L101 324Z" fill="#e6d1af" stroke="#621c1c"></path><path d="M0 600L132 600L106 529Z" fill="#decbad" stroke="#621c1c"></path><path d="M106 529L132 600L196 600Z" fill="#e4d0af" stroke="#621c1c"></path><path d="M307 0L215 0L326 85Z" fill="#d8c6ab" stroke="#621c1c"></path><path d="M619 73L505 84L572 231Z" fill="#d4c3aa" stroke="#621c1c"></path><path d="M505 84L492 0L415 0Z" fill="#d8c6ab" stroke="#621c1c"></path><path d="M0 304L0 427L102 402Z" fill="#dac8ac" stroke="#621c1c"></path><path d="M0 134L0 213L65 232Z" fill="#dac8ac" stroke="#621c1c"></path><path d="M0 134L65 232L132 113Z" fill="#dcc9ac" stroke="#621c1c"></path><path d="M663 335L692 199L619 300Z" fill="#d8c6ab" stroke="#621c1c"></path><path d="M687 112L619 73L572 231Z" fill="#dcc9ac" stroke="#621c1c"></path><path d="M528 600L596 600L517 505Z" fill="#d6c5ab" stroke="#621c1c"></path><path d="M591 492L713 413L597 371Z" fill="#d8c6ab" stroke="#621c1c"></path><path d="M722 531L713 413L591 492Z" fill="#e8d3b0" stroke="#621c1c"></path><path d="M663 335L770 331L692 199Z" fill="#decbad" stroke="#621c1c"></path><path d="M0 427L0 491L102 402Z" fill="#e4d0af" stroke="#621c1c"></path><path d="M215 0L134 0L132 113Z" fill="#e2ceae" stroke="#621c1c"></path><path d="M0 0L0 134L132 113Z" fill="#e4d0af" stroke="#621c1c"></path><path d="M778 129L687 112L692 199Z" fill="#d6c5ab" stroke="#621c1c"></path><path d="M692 199L687 112L572 231Z" fill="#dac8ac" stroke="#621c1c"></path><path d="M619 73L635 0L492 0Z" fill="#e2ceae" stroke="#621c1c"></path><path d="M596 600L664 600L591 492Z" fill="#e6d1af" stroke="#621c1c"></path><path d="M834 392L770 331L713 413Z" fill="#e6d1af" stroke="#621c1c"></path><path d="M713 413L770 331L663 335Z" fill="#e2ceae" stroke="#621c1c"></path><path d="M664 600L722 531L591 492Z" fill="#e4d0af" stroke="#621c1c"></path><path d="M702 0L635 0L619 73Z" fill="#d6c5ab" stroke="#621c1c"></path><path d="M770 331L770 192L692 199Z" fill="#e6d1af" stroke="#621c1c"></path><path d="M687 112L702 0L619 73Z" fill="#dcc9ac" stroke="#621c1c"></path><path d="M0 491L0 600L106 529Z" fill="#d4c3aa" stroke="#621c1c"></path><path d="M900 172L778 129L770 192Z" fill="#e8d3b0" stroke="#621c1c"></path><path d="M770 192L778 129L692 199Z" fill="#dac8ac" stroke="#621c1c"></path><path d="M134 0L0 0L132 113Z" fill="#d4c3aa" stroke="#621c1c"></path><path d="M778 129L702 0L687 112Z" fill="#dcc9ac" stroke="#621c1c"></path><path d="M802 520L834 392L713 413Z" fill="#e6d1af" stroke="#621c1c"></path><path d="M770 331L900 280L770 192Z" fill="#decbad" stroke="#621c1c"></path><path d="M788 600L802 520L722 531Z" fill="#e4d0af" stroke="#621c1c"></path><path d="M722 531L802 520L713 413Z" fill="#d6c5ab" stroke="#621c1c"></path><path d="M664 600L788 600L722 531Z" fill="#e0cdae" stroke="#621c1c"></path><path d="M900 521L900 362L834 392Z" fill="#d4c3aa" stroke="#621c1c"></path><path d="M900 82L788 0L778 129Z" fill="#e2ceae" stroke="#621c1c"></path><path d="M778 129L788 0L702 0Z" fill="#e4d0af" stroke="#621c1c"></path><path d="M900 521L834 392L802 520Z" fill="#e8d3b0" stroke="#621c1c"></path><path d="M834 392L900 280L770 331Z" fill="#decbad" stroke="#621c1c"></path><path d="M900 362L900 280L834 392Z" fill="#decbad" stroke="#621c1c"></path><path d="M900 280L900 172L770 192Z" fill="#dcc9ac" stroke="#621c1c"></path><path d="M900 600L900 521L802 520Z" fill="#e4d0af" stroke="#621c1c"></path><path d="M900 172L900 82L778 129Z" fill="#dcc9ac" stroke="#621c1c"></path><path d="M788 600L900 600L802 520Z" fill="#e0cdae" stroke="#621c1c"></path><path d="M900 82L900 0L788 0Z" fill="#e0cdae" stroke="#621c1c"></path></g></svg>